<!-- This Source Code Form is subject to the terms of the Mozilla Public
   - License, v. 2.0. If a copy of the MPL was not distributed with this
   - file, You can obtain one at http://mozilla.org/MPL/2.0/. -->
<svg width="100%" height="100%" viewBox="0 0 16 16" xmlns="http://www.w3.org/2000/svg">
  <style>
    path { fill: #0a84ff; }
    @media (prefers-color-scheme: dark) { path { fill: #4cb1f9; } } }
  </style>
  <path d="M5,6L7.879,6L7.44,5.56C6.863,4.976 6.863,4.023 7.44,3.439C7.721,3.158 8.103,3 8.5,3L8.5,2.999C8.898,2.999 9.28,3.157 9.561,3.439L12.561,6.439C12.654,6.532 12.734,6.636 12.799,6.75L12.797,6.75C13.066,7.213 13.066,7.787 12.797,8.25L12.799,8.25C12.734,8.363 12.653,8.467 12.561,8.56L9.561,11.56C8.979,12.142 8.021,12.142 7.439,11.56C6.862,10.976 6.862,10.023 7.439,9.439L7.879,9L5,9C4.172,9 3.5,8.328 3.5,7.5C3.5,6.672 4.172,6 5,6ZM8.5,4C8.633,4 8.76,4.052 8.854,4.146L11.854,7.146C11.884,7.176 11.91,7.212 11.932,7.25C11.933,7.25 11.933,7.25 11.934,7.25C12.023,7.404 12.023,7.596 11.934,7.75C11.933,7.75 11.933,7.75 11.932,7.75C11.911,7.788 11.884,7.822 11.854,7.853L8.854,10.853C8.654,11.053 8.346,11.053 8.146,10.853C8.051,10.76 7.997,10.633 7.997,10.5C7.997,10.366 8.051,10.239 8.146,10.146L9.439,8.853C9.532,8.759 9.585,8.632 9.585,8.5C9.585,8.226 9.36,8.001 9.086,8L4.998,8C4.722,8 4.498,7.776 4.498,7.5C4.498,7.224 4.722,7 4.998,7L9.086,7C9.36,7 9.586,6.774 9.586,6.5C9.586,6.367 9.533,6.24 9.439,6.146L8.146,4.853C8.051,4.76 7.997,4.633 7.997,4.499C7.997,4.366 8.051,4.239 8.146,4.146C8.24,4.052 8.367,4 8.5,4Z" fill-opacity="0.2"/>
  <path d="M8.5,3.5C8.765,3.5 9.02,3.606 9.207,3.793L12.207,6.793C12.595,7.181 12.595,7.819 12.207,8.207L9.207,11.207C9.021,11.387 8.771,11.488 8.512,11.488C7.964,11.488 7.512,11.036 7.512,10.488C7.512,10.229 7.613,9.979 7.793,9.793L9.086,8.5L5,8.5C4.322,8.497 3.98,7.998 3.978,7.499C3.976,7 4.315,6.5 5,6.5L9.086,6.5L7.793,5.207C7.606,5.02 7.5,4.765 7.5,4.5C7.5,3.951 7.951,3.5 8.5,3.5Z"/>
</svg>
